<COLLADA xmlns="http://www.collada.org/2005/11/COLLADASchema" version="1.4.1">
  <asset>
    <created>2026-07-13T10:49:01.757028</created>
    <modified>2026-07-13T10:49:01.757041</modified>
    <up_axis>Y_UP</up_axis>
  </asset>
  <library_effects>
    <effect id="d411021009b942d18400e0d558cc20f8" name="d411021009b942d18400e0d558cc20f8">
      <profile_COMMON>
        <technique sid="common">
          <phong>
            <emission>
              <color>0.0 0.0 0.0 1.0</color>
            </emission>
            <ambient>
              <color>0.0 0.0 0.0 1.0</color>
            </ambient>
            <diffuse>
              <color>0.0 0.0 0.0 1.0</color>
            </diffuse>
            <specular>
              <color>0.0 0.0 0.0 1.0</color>
            </specular>
            <shininess>
              <float>0.0</float>
            </shininess>
            <reflective>
              <color>0.0 0.0 0.0 1.0</color>
            </reflective>
            <reflectivity>
              <float>0.0</float>
            </reflectivity>
            <transparent>
              <color>0.0 0.0 0.0 1.0</color>
            </transparent>
            <transparency>
              <float>1.0</float>
            </transparency>
          </phong>
        </technique>
        <extra>
          <technique profile="GOOGLEEARTH">
            <double_sided>0</double_sided>
          </technique>
        </extra>
      </profile_COMMON>
    </effect>
  </library_effects>
  <library_geometries>
    <geometry id="fabbb4da7ada40468b4177fc0dd37a58" name="f50ae0ee6c7f42fdbb519aaec76135ae">
      <mesh>
        <source id="verts-array">
          <float_array count="324" id="verts-array-array">265.8156 -1.384729 -1.166933 273.2575 18.5362 -1.166933 280.4676 15.98846 -1.166933 280.4676 15.98846 -1.166933 273.2583 -3.932468 -1.166933 265.8156 -1.384729 -1.166933 280.4676 15.98846 1.833067 273.2575 18.5362 1.833067 265.8156 -1.384729 1.833067 265.8156 -1.384729 1.833067 273.2583 -3.932468 1.833067 280.4676 15.98846 1.833067 280.4676 15.98846 1.833067 273.2583 -3.932468 1.833067 280.4676 15.98846 -1.166933 280.4676 15.98846 -1.166933 273.2583 -3.932468 1.833067 273.2583 -3.932468 -1.166933 273.2583 -3.932468 1.833067 265.8156 -1.384729 1.833067 273.2583 -3.932468 -1.166933 273.2583 -3.932468 -1.166933 265.8156 -1.384729 1.833067 265.8156 -1.384729 -1.166933 273.2575 18.5362 1.833067 280.4676 15.98846 1.833067 273.2575 18.5362 -1.166933 273.2575 18.5362 -1.166933 280.4676 15.98846 1.833067 280.4676 15.98846 -1.166933 265.8156 -1.384729 1.833067 273.2575 18.5362 1.833067 265.8156 -1.384729 -1.166933 265.8156 -1.384729 -1.166933 273.2575 18.5362 1.833067 273.2575 18.5362 -1.166933 273.2583 -2.774289 -1.60914 282.5609 15.29363 -1.60914 289.5385 11.81934 -1.60914 289.5385 11.81934 -1.60914 280.2358 -6.248582 -1.60914 273.2583 -2.774289 -1.60914 289.5385 11.81934 1.39086 282.5609 15.29363 1.39086 273.2583 -2.774289 1.39086 273.2583 -2.774289 1.39086 280.2358 -6.248582 1.39086 289.5385 11.81934 1.39086 289.5385 11.81934 1.39086 280.2358 -6.248582 1.39086 289.5385 11.81934 -1.60914 289.5385 11.81934 -1.60914 280.2358 -6.248582 1.39086 280.2358 -6.248582 -1.60914 280.2358 -6.248582 1.39086 273.2583 -2.774289 1.39086 280.2358 -6.248582 -1.60914 280.2358 -6.248582 -1.60914 273.2583 -2.774289 1.39086 273.2583 -2.774289 -1.60914 282.5609 15.29363 1.39086 289.5385 11.81934 1.39086 282.5609 15.29363 -1.60914 282.5609 15.29363 -1.60914 289.5385 11.81934 1.39086 289.5385 11.81934 -1.60914 273.2583 -2.774289 1.39086 282.5609 15.29363 1.39086 273.2583 -2.774289 -1.60914 273.2583 -2.774289 -1.60914 282.5609 15.29363 1.39086 282.5609 15.29363 -1.60914 281.1662 -6.943456 -1.900995 290.0036 12.051 -1.900995 297.679 8.576745 -1.900995 297.679 8.576745 -1.900995 288.609 -10.41772 -1.900995 281.1662 -6.943456 -1.900995 297.679 8.576745 1.099005 290.0036 12.051 1.099005 281.1662 -6.943456 1.099005 281.1662 -6.943456 1.099005 288.609 -10.41772 1.099005 297.679 8.576745 1.099005 297.679 8.576745 1.099005 288.609 -10.41772 1.099005 297.679 8.576745 -1.900995 297.679 8.576745 -1.900995 288.609 -10.41772 1.099005 288.609 -10.41772 -1.900995 288.609 -10.41772 1.099005 281.1662 -6.943456 1.099005 288.609 -10.41772 -1.900995 288.609 -10.41772 -1.900995 281.1662 -6.943456 1.099005 281.1662 -6.943456 -1.900995 290.0036 12.051 1.099005 297.679 8.576745 1.099005 290.0036 12.051 -1.900995 290.0036 12.051 -1.900995 297.679 8.576745 1.099005 297.679 8.576745 -1.900995 281.1662 -6.943456 1.099005 290.0036 12.051 1.099005 281.1662 -6.943456 -1.900995 281.1662 -6.943456 -1.900995 290.0036 12.051 1.099005 290.0036 12.051 -1.900995</float_array>
          <technique_common>
            <accessor count="108" source="#verts-array-array" stride="3">
              <param type="float" name="X" />
              <param type="float" name="Y" />
              <param type="float" name="Z" />
            </accessor>
          </technique_common>
        </source>
        <source id="normals-array">
          <float_array count="324" id="normals-array-array">0 0 -1 0 0 -1 0 0 -1 0 0 -1 0 0 -1 0 0 -1 0 0 1 0 0 1 0 0 1 0 0 1 0 0 1 0 0 1 0.9403173 -0.340299 0 0.9403173 -0.340299 0 0.9403173 -0.340299 0 0.9403173 -0.340299 0 0.9403173 -0.340299 0 0.9403173 -0.340299 0 -0.3238636 -0.9461038 0 -0.3238636 -0.9461038 0 -0.3238636 -0.9461038 0 -0.3238636 -0.9461038 0 -0.3238636 -0.9461038 0 -0.3238636 -0.9461038 0 0.333168 0.9428675 0 0.333168 0.9428675 0 0.333168 0.9428675 0 0.333168 0.9428675 0 0.333168 0.9428675 0 0.333168 0.9428675 0 -0.9367676 0.3499521 0 -0.9367676 0.3499521 0 -0.9367676 0.3499521 0 -0.9367676 0.3499521 0 -0.9367676 0.3499521 0 -0.9367676 0.3499521 0 0 0 -1 0 0 -1 0 0 -1 0 0 -1 0 0 -1 0 0 -1 0 0 1 0 0 1 0 0 1 0 0 1 0 0 1 0 0 1 0.8890764 -0.4577589 0 0.8890764 -0.4577589 0 0.8890764 -0.4577589 0 0.8890764 -0.4577589 0 0.8890764 -0.4577589 0 0.8890764 -0.4577589 0 -0.4457244 -0.8951702 0 -0.4457244 -0.8951702 0 -0.4457244 -0.8951702 0 -0.4457244 -0.8951702 0 -0.4457244 -0.8951702 0 -0.4457244 -0.8951702 0 0.4457242 0.8951704 0 0.4457242 0.8951704 0 0.4457242 0.8951704 0 0.4457242 0.8951704 0 0.4457242 0.8951704 0 0.4457242 0.8951704 0 -0.8890761 0.4577595 0 -0.8890761 0.4577595 0 -0.8890761 0.4577595 0 -0.8890761 0.4577595 0 -0.8890761 0.4577595 0 -0.8890761 0.4577595 0 0 0 -1 0 0 -1 0 0 -1 0 0 -1 0 0 -1 0 0 -1 0 0 1 0 0 1 0 0 1 0 0 1 0 0 1 0 0 1 0.9023986 -0.4309022 0 0.9023986 -0.4309022 0 0.9023986 -0.4309022 0 0.9023986 -0.4309022 0 0.9023986 -0.4309022 0 0.9023986 -0.4309022 0 -0.4229833 -0.9061375 0 -0.4229833 -0.9061375 0 -0.4229833 -0.9061375 0 -0.4229833 -0.9061375 0 -0.4229833 -0.9061375 0 -0.4229833 -0.9061375 0 0.4123725 0.9110153 0 0.4123725 0.9110153 0 0.4123725 0.9110153 0 0.4123725 0.9110153 0 0.4123725 0.9110153 0 0.4123725 0.9110153 0 -0.9066699 0.4218409 0 -0.9066699 0.4218409 0 -0.9066699 0.4218409 0 -0.9066699 0.4218409 0 -0.9066699 0.4218409 0 -0.9066699 0.4218409 0</float_array>
          <technique_common>
            <accessor count="108" source="#normals-array-array" stride="3">
              <param type="float" name="X" />
              <param type="float" name="Y" />
              <param type="float" name="Z" />
            </accessor>
          </technique_common>
        </source>
        <vertices id="verts-array-vertices">
          <input semantic="POSITION" source="#verts-array" />
        </vertices>
        <triangles count="36" material="material0">
          <input offset="0" semantic="VERTEX" source="#verts-array-vertices" />
          <input offset="1" semantic="NORMAL" source="#normals-array" />
          <p>0 0 1 1 2 2 3 3 4 4 5 5 6 6 7 7 8 8 9 9 10 10 11 11 12 12 13 13 14 14 15 15 16 16 17 17 18 18 19 19 20 20 21 21 22 22 23 23 24 24 25 25 26 26 27 27 28 28 29 29 30 30 31 31 32 32 33 33 34 34 35 35 36 36 37 37 38 38 39 39 40 40 41 41 42 42 43 43 44 44 45 45 46 46 47 47 48 48 49 49 50 50 51 51 52 52 53 53 54 54 55 55 56 56 57 57 58 58 59 59 60 60 61 61 62 62 63 63 64 64 65 65 66 66 67 67 68 68 69 69 70 70 71 71 72 72 73 73 74 74 75 75 76 76 77 77 78 78 79 79 80 80 81 81 82 82 83 83 84 84 85 85 86 86 87 87 88 88 89 89 90 90 91 91 92 92 93 93 94 94 95 95 96 96 97 97 98 98 99 99 100 100 101 101 102 102 103 103 104 104 105 105 106 106 107 107</p>
        </triangles>
      </mesh>
    </geometry>
  </library_geometries>
  <library_materials>
    <material id="c6c87492289a4e39b6a57aad832f6e07" name="defaultmaterial">
      <instance_effect url="#d411021009b942d18400e0d558cc20f8" />
    </material>
  </library_materials>
  <library_visual_scenes>
    <visual_scene id="scene">
      <node id="node0" name="node0">
        <instance_geometry url="#fabbb4da7ada40468b4177fc0dd37a58">
          <bind_material>
            <technique_common>
              <instance_material symbol="material0" target="#c6c87492289a4e39b6a57aad832f6e07" />
            </technique_common>
          </bind_material>
        </instance_geometry>
      </node>
    </visual_scene>
  </library_visual_scenes>
  <scene>
    <instance_visual_scene url="#scene" />
  </scene>
</COLLADA>
