<COLLADA xmlns="http://www.collada.org/2005/11/COLLADASchema" version="1.4.1">
  <asset>
    <created>2026-07-27T11:05:23.104497</created>
    <modified>2026-07-27T11:05:23.104501</modified>
    <up_axis>Y_UP</up_axis>
  </asset>
  <library_effects>
    <effect id="d8661f8a9cb9455f949420e00b909fab" name="d8661f8a9cb9455f949420e00b909fab">
      <profile_COMMON>
        <technique sid="common">
          <phong>
            <emission>
              <color>0.0 0.0 0.0 1.0</color>
            </emission>
            <ambient>
              <color>0.0 0.0 0.0 1.0</color>
            </ambient>
            <diffuse>
              <color>0.0 0.0 0.0 1.0</color>
            </diffuse>
            <specular>
              <color>0.0 0.0 0.0 1.0</color>
            </specular>
            <shininess>
              <float>0.0</float>
            </shininess>
            <reflective>
              <color>0.0 0.0 0.0 1.0</color>
            </reflective>
            <reflectivity>
              <float>0.0</float>
            </reflectivity>
            <transparent>
              <color>0.0 0.0 0.0 1.0</color>
            </transparent>
            <transparency>
              <float>1.0</float>
            </transparency>
          </phong>
        </technique>
        <extra>
          <technique profile="GOOGLEEARTH">
            <double_sided>0</double_sided>
          </technique>
        </extra>
      </profile_COMMON>
    </effect>
  </library_effects>
  <library_geometries>
    <geometry id="056ecc6f896844ae87ae0fda996b452e" name="377971e0d6444a788f9567c121cbbad4">
      <mesh>
        <source id="verts-array">
          <float_array count="2124" id="verts-array-array">90.25289 16.19873 -4.610325 90.71166 14.82785 -4.610325 90.71159 14.82782 -4.610325 101.2653 24.19662 -4.610325 96.21791 19.39787 -4.610325 90.25289 16.19873 -4.610325 107.0009 36.53618 -4.610325 104.9361 29.90939 -4.610325 101.2653 24.19662 -4.610325 105.6241 50.01818 -4.610325 107.2302 43.39145 -4.610325 107.0009 36.53618 -4.610325 97.82339 60.9865 -4.610325 102.412 55.95937 -4.610325 105.6241 50.01818 -4.610325 85.43419 66.69908 -4.610325 91.85821 64.64257 -4.610325 97.82339 60.9865 -4.610325 71.89795 65.32789 -4.610325 78.55135 66.92751 -4.610325 85.43419 66.69908 -4.610325 39.08977 54.81624 -4.610325 71.20965 66.69893 -4.610325 71.89795 65.32789 -4.610325 27.38893 50.70303 -4.610325 39.08976 55.04475 -4.610325 39.08977 54.81624 -4.610325 0.7752049 37.90648 -4.610325 0.08691776 39.50604 -4.610325 27.84779 49.78899 -4.610325 -0.1425114 29.68016 -4.610325 -2.89566 36.76394 -4.610325 0.7752049 37.90648 -4.610325 33.35414 35.62146 -4.610325 5.593224 25.33849 -4.610325 3.528356 31.05121 -4.610325 45.28443 39.50618 -4.610325 33.58357 35.16445 -4.610325 33.35414 35.62146 -4.610325 41.38427 14.14181 -4.610325 53.08516 18.48408 -4.610325 53.54402 17.56994 -4.610325 41.61367 13.68472 -4.610325 41.38427 14.14167 -4.610325 41.38433 14.14169 -4.610325 19.40743 5.458243 -4.610325 19.35904 5.458243 -4.610325 41.50954 13.64615 -4.610325 16.14704 -2.541486 -4.610325 13.85272 3.400471 -4.610325 19.40743 5.458243 -4.610325 14.9999 -10.76882 -4.610325 12.47615 -3.912715 -4.610325 16.14704 -2.541486 -4.610325 46.66125 -0.7130651 -4.610325 19.12965 -10.99735 -4.610325 18.44135 -9.39759 -4.610325 58.82102 2.486536 -4.610325 47.12011 -1.855747 -4.610325 46.66125 -0.7130651 -4.610325 90.71166 14.82762 -4.610325 65.47447 5.458498 -4.610325 65.38873 5.458498 -4.610325 107.0009 36.53618 -4.610325 101.2653 24.19662 -4.610325 90.25289 16.19873 -4.610325 97.82339 60.9865 -4.610325 105.6241 50.01818 -4.610325 107.0009 36.53618 -4.610325 71.89795 65.32789 -4.610325 85.43419 66.69908 -4.610325 97.82339 60.9865 -4.610325 27.38893 50.70303 -4.610325 39.08977 54.81624 -4.610325 71.89795 65.32789 -4.610325 -0.1425114 29.68016 -4.610325 0.7752049 37.90648 -4.610325 27.84779 49.78899 -4.610325 45.28443 39.50618 -4.610325 33.35414 35.62146 -4.610325 3.528356 31.05121 -4.610325 41.38433 14.14169 -4.610325 41.38427 14.14181 -4.610325 53.54402 17.56994 -4.610325 16.14704 -2.541486 -4.610325 19.40743 5.458243 -4.610325 41.50954 13.64615 -4.610325 18.44135 -9.39759 -4.610325 14.9999 -10.76882 -4.610325 16.14704 -2.541486 -4.610325 58.59159 2.943609 -4.610325 58.82102 2.486536 -4.610325 46.66125 -0.7130651 -4.610325 90.71159 14.82782 -4.610325 90.71166 14.82762 -4.610325 65.38873 5.458498 -4.610325 97.82339 60.9865 -4.610325 107.0009 36.53618 -4.610325 90.25289 16.19873 -4.610325 27.38893 50.70303 -4.610325 71.89795 65.32789 -4.610325 97.82339 60.9865 -4.610325 3.528356 31.05121 -4.610325 -0.1425114 29.68016 -4.610325 27.84779 49.78899 -4.610325 44.82556 40.42021 -4.610325 45.28443 39.50618 -4.610325 3.528356 31.05121 -4.610325 41.61367 13.68472 -4.610325 41.38433 14.14169 -4.610325 53.54402 17.56994 -4.610325 16.14704 -2.541486 -4.610325 41.50954 13.64615 -4.610325 41.61367 13.68472 -4.610325 46.66125 -0.7130651 -4.610325 18.44135 -9.39759 -4.610325 16.14704 -2.541486 -4.610325 65.38873 5.458498 -4.610325 58.59159 2.943609 -4.610325 46.66125 -0.7130651 -4.610325 90.25289 16.19873 -4.610325 90.71159 14.82782 -4.610325 65.38873 5.458498 -4.610325 27.84779 49.78899 -4.610325 27.38893 50.70303 -4.610325 97.82339 60.9865 -4.610325 44.82556 40.42021 -4.610325 3.528356 31.05121 -4.610325 27.84779 49.78899 -4.610325 16.14704 -2.541486 -4.610325 41.61367 13.68472 -4.610325 53.54402 17.56994 -4.610325 65.38873 5.458498 -4.610325 46.66125 -0.7130651 -4.610325 16.14704 -2.541486 -4.610325 97.82339 60.9865 -4.610325 90.25289 16.19873 -4.610325 65.38873 5.458498 -4.610325 44.82556 40.42021 -4.610325 27.84779 49.78899 -4.610325 97.82339 60.9865 -4.610325 16.14704 -2.541486 -4.610325 53.54402 17.56994 -4.610325 54.19542 17.81095 -4.610325 66.62124 48.41818 -4.610325 44.82556 40.42021 -4.610325 97.82339 60.9865 -4.610325 16.14704 -2.541486 -4.610325 54.19542 17.81095 -4.610325 75.11033 25.56737 -4.610325 75.11033 25.56737 -4.610325 66.62124 48.41818 -4.610325 97.82339 60.9865 -4.610325 65.38873 5.458498 -4.610325 16.14704 -2.541486 -4.610325 75.11033 25.56737 -4.610325 75.11033 25.56737 -4.610325 97.82339 60.9865 -4.610325 65.38873 5.458498 -4.610325 90.71159 14.82782 -0.6103249 90.71166 14.82785 -0.6103249 90.25289 16.19873 -0.6103249 90.25289 16.19873 -0.6103249 96.21791 19.39787 -0.6103249 101.2653 24.19662 -0.6103249 101.2653 24.19662 -0.6103249 104.9361 29.90939 -0.6103249 107.0009 36.53618 -0.6103249 107.0009 36.53618 -0.6103249 107.2302 43.39145 -0.6103249 105.6241 50.01818 -0.6103249 105.6241 50.01818 -0.6103249 102.412 55.95937 -0.6103249 97.82339 60.9865 -0.6103249 97.82339 60.9865 -0.6103249 91.85821 64.64257 -0.6103249 85.43419 66.69908 -0.6103249 85.43419 66.69908 -0.6103249 78.55135 66.92751 -0.6103249 71.89795 65.32789 -0.6103249 71.89795 65.32789 -0.6103249 71.20965 66.69893 -0.6103249 39.08977 54.81624 -0.6103249 39.08977 54.81624 -0.6103249 39.08976 55.04475 -0.6103249 27.38893 50.70303 -0.6103249 27.84779 49.78899 -0.6103249 0.08691776 39.50604 -0.6103249 0.7752049 37.90648 -0.6103249 0.7752049 37.90648 -0.6103249 -2.89566 36.76394 -0.6103249 -0.1425114 29.68016 -0.6103249 3.528356 31.05121 -0.6103249 5.593224 25.33849 -0.6103249 33.35414 35.62146 -0.6103249 33.35414 35.62146 -0.6103249 33.58357 35.16445 -0.6103249 45.28443 39.50618 -0.6103249 53.54402 17.56994 -0.6103249 53.08516 18.48408 -0.6103249 41.38427 14.14181 -0.6103249 41.38433 14.14169 -0.6103249 41.38427 14.14167 -0.6103249 41.61367 13.68472 -0.6103249 41.50954 13.64615 -0.6103249 19.35904 5.458243 -0.6103249 19.40743 5.458243 -0.6103249 19.40743 5.458243 -0.6103249 13.85272 3.400471 -0.6103249 16.14704 -2.541486 -0.6103249 16.14704 -2.541486 -0.6103249 12.47615 -3.912715 -0.6103249 14.9999 -10.76882 -0.6103249 18.44135 -9.39759 -0.6103249 19.12965 -10.99735 -0.6103249 46.66125 -0.7130651 -0.6103249 46.66125 -0.7130651 -0.6103249 47.12011 -1.855747 -0.6103249 58.82102 2.486536 -0.6103249 65.38873 5.458498 -0.6103249 65.47447 5.458498 -0.6103249 90.71166 14.82762 -0.6103249 90.25289 16.19873 -0.6103249 101.2653 24.19662 -0.6103249 107.0009 36.53618 -0.6103249 107.0009 36.53618 -0.6103249 105.6241 50.01818 -0.6103249 97.82339 60.9865 -0.6103249 97.82339 60.9865 -0.6103249 85.43419 66.69908 -0.6103249 71.89795 65.32789 -0.6103249 71.89795 65.32789 -0.6103249 39.08977 54.81624 -0.6103249 27.38893 50.70303 -0.6103249 27.84779 49.78899 -0.6103249 0.7752049 37.90648 -0.6103249 -0.1425114 29.68016 -0.6103249 3.528356 31.05121 -0.6103249 33.35414 35.62146 -0.6103249 45.28443 39.50618 -0.6103249 53.54402 17.56994 -0.6103249 41.38427 14.14181 -0.6103249 41.38433 14.14169 -0.6103249 41.50954 13.64615 -0.6103249 19.40743 5.458243 -0.6103249 16.14704 -2.541486 -0.6103249 16.14704 -2.541486 -0.6103249 14.9999 -10.76882 -0.6103249 18.44135 -9.39759 -0.6103249 46.66125 -0.7130651 -0.6103249 58.82102 2.486536 -0.6103249 58.59159 2.943609 -0.6103249 65.38873 5.458498 -0.6103249 90.71166 14.82762 -0.6103249 90.71159 14.82782 -0.6103249 90.25289 16.19873 -0.6103249 107.0009 36.53618 -0.6103249 97.82339 60.9865 -0.6103249 97.82339 60.9865 -0.6103249 71.89795 65.32789 -0.6103249 27.38893 50.70303 -0.6103249 27.84779 49.78899 -0.6103249 -0.1425114 29.68016 -0.6103249 3.528356 31.05121 -0.6103249 3.528356 31.05121 -0.6103249 45.28443 39.50618 -0.6103249 44.82556 40.42021 -0.6103249 53.54402 17.56994 -0.6103249 41.38433 14.14169 -0.6103249 41.61367 13.68472 -0.6103249 41.61367 13.68472 -0.6103249 41.50954 13.64615 -0.6103249 16.14704 -2.541486 -0.6103249 16.14704 -2.541486 -0.6103249 18.44135 -9.39759 -0.6103249 46.66125 -0.7130651 -0.6103249 46.66125 -0.7130651 -0.6103249 58.59159 2.943609 -0.6103249 65.38873 5.458498 -0.6103249 65.38873 5.458498 -0.6103249 90.71159 14.82782 -0.6103249 90.25289 16.19873 -0.6103249 97.82339 60.9865 -0.6103249 27.38893 50.70303 -0.6103249 27.84779 49.78899 -0.6103249 27.84779 49.78899 -0.6103249 3.528356 31.05121 -0.6103249 44.82556 40.42021 -0.6103249 53.54402 17.56994 -0.6103249 41.61367 13.68472 -0.6103249 16.14704 -2.541486 -0.6103249 16.14704 -2.541486 -0.6103249 46.66125 -0.7130651 -0.6103249 65.38873 5.458498 -0.6103249 65.38873 5.458498 -0.6103249 90.25289 16.19873 -0.6103249 97.82339 60.9865 -0.6103249 97.82339 60.9865 -0.6103249 27.84779 49.78899 -0.6103249 44.82556 40.42021 -0.6103249 54.19542 17.81095 -0.6103249 53.54402 17.56994 -0.6103249 16.14704 -2.541486 -0.6103249 97.82339 60.9865 -0.6103249 44.82556 40.42021 -0.6103249 66.62124 48.41818 -0.6103249 75.11033 25.56737 -0.6103249 54.19542 17.81095 -0.6103249 16.14704 -2.541486 -0.6103249 97.82339 60.9865 -0.6103249 66.62124 48.41818 -0.6103249 75.11033 25.56737 -0.6103249 75.11033 25.56737 -0.6103249 16.14704 -2.541486 -0.6103249 65.38873 5.458498 -0.6103249 65.38873 5.458498 -0.6103249 97.82339 60.9865 -0.6103249 75.11033 25.56737 -0.6103249 90.71159 14.82782 -0.6103249 90.71166 14.82762 -0.6103249 90.71159 14.82782 -4.610325 90.71159 14.82782 -4.610325 90.71166 14.82762 -0.6103249 90.71166 14.82762 -4.610325 90.71166 14.82762 -0.6103249 65.47447 5.458498 -0.6103249 90.71166 14.82762 -4.610325 90.71166 14.82762 -4.610325 65.47447 5.458498 -0.6103249 65.47447 5.458498 -4.610325 65.47447 5.458498 -0.6103249 65.38873 5.458498 -0.6103249 65.47447 5.458498 -4.610325 65.47447 5.458498 -4.610325 65.38873 5.458498 -0.6103249 65.38873 5.458498 -4.610325 65.38873 5.458498 -0.6103249 58.59159 2.943609 -0.6103249 65.38873 5.458498 -4.610325 65.38873 5.458498 -4.610325 58.59159 2.943609 -0.6103249 58.59159 2.943609 -4.610325 58.59159 2.943609 -0.6103249 58.82102 2.486536 -0.6103249 58.59159 2.943609 -4.610325 58.59159 2.943609 -4.610325 58.82102 2.486536 -0.6103249 58.82102 2.486536 -4.610325 58.82102 2.486536 -0.6103249 47.12011 -1.855747 -0.6103249 58.82102 2.486536 -4.610325 58.82102 2.486536 -4.610325 47.12011 -1.855747 -0.6103249 47.12011 -1.855747 -4.610325 47.12011 -1.855747 -0.6103249 46.66125 -0.7130651 -0.6103249 47.12011 -1.855747 -4.610325 47.12011 -1.855747 -4.610325 46.66125 -0.7130651 -0.6103249 46.66125 -0.7130651 -4.610325 46.66125 -0.7130651 -0.6103249 19.12965 -10.99735 -0.6103249 46.66125 -0.7130651 -4.610325 46.66125 -0.7130651 -4.610325 19.12965 -10.99735 -0.6103249 19.12965 -10.99735 -4.610325 19.12965 -10.99735 -0.6103249 18.44135 -9.39759 -0.6103249 19.12965 -10.99735 -4.610325 19.12965 -10.99735 -4.610325 18.44135 -9.39759 -0.6103249 18.44135 -9.39759 -4.610325 18.44135 -9.39759 -0.6103249 14.9999 -10.76882 -0.6103249 18.44135 -9.39759 -4.610325 18.44135 -9.39759 -4.610325 14.9999 -10.76882 -0.6103249 14.9999 -10.76882 -4.610325 14.9999 -10.76882 -0.6103249 12.47615 -3.912715 -0.6103249 14.9999 -10.76882 -4.610325 14.9999 -10.76882 -4.610325 12.47615 -3.912715 -0.6103249 12.47615 -3.912715 -4.610325 12.47615 -3.912715 -0.6103249 16.14704 -2.541486 -0.6103249 12.47615 -3.912715 -4.610325 12.47615 -3.912715 -4.610325 16.14704 -2.541486 -0.6103249 16.14704 -2.541486 -4.610325 16.14704 -2.541486 -0.6103249 13.85272 3.400471 -0.6103249 16.14704 -2.541486 -4.610325 16.14704 -2.541486 -4.610325 13.85272 3.400471 -0.6103249 13.85272 3.400471 -4.610325 13.85272 3.400471 -0.6103249 19.40743 5.458243 -0.6103249 13.85272 3.400471 -4.610325 13.85272 3.400471 -4.610325 19.40743 5.458243 -0.6103249 19.40743 5.458243 -4.610325 19.40743 5.458243 -0.6103249 19.35904 5.458243 -0.6103249 19.40743 5.458243 -4.610325 19.40743 5.458243 -4.610325 19.35904 5.458243 -0.6103249 19.35904 5.458243 -4.610325 19.35904 5.458243 -0.6103249 41.50954 13.64615 -0.6103249 19.35904 5.458243 -4.610325 19.35904 5.458243 -4.610325 41.50954 13.64615 -0.6103249 41.50954 13.64615 -4.610325 41.50954 13.64615 -0.6103249 41.61367 13.68472 -0.6103249 41.50954 13.64615 -4.610325 41.50954 13.64615 -4.610325 41.61367 13.68472 -0.6103249 41.61367 13.68472 -4.610325 41.61367 13.68472 -0.6103249 41.38427 14.14167 -0.6103249 41.61367 13.68472 -4.610325 41.61367 13.68472 -4.610325 41.38427 14.14167 -0.6103249 41.38427 14.14167 -4.610325 41.38427 14.14167 -0.6103249 41.38433 14.14169 -0.6103249 41.38427 14.14167 -4.610325 41.38427 14.14167 -4.610325 41.38433 14.14169 -0.6103249 41.38433 14.14169 -4.610325 41.38433 14.14169 -0.6103249 41.38427 14.14181 -0.6103249 41.38433 14.14169 -4.610325 41.38433 14.14169 -4.610325 41.38427 14.14181 -0.6103249 41.38427 14.14181 -4.610325 41.38427 14.14181 -0.6103249 53.08516 18.48408 -0.6103249 41.38427 14.14181 -4.610325 41.38427 14.14181 -4.610325 53.08516 18.48408 -0.6103249 53.08516 18.48408 -4.610325 53.08516 18.48408 -0.6103249 53.54402 17.56994 -0.6103249 53.08516 18.48408 -4.610325 53.08516 18.48408 -4.610325 53.54402 17.56994 -0.6103249 53.54402 17.56994 -4.610325 53.54402 17.56994 -0.6103249 54.19542 17.81095 -0.6103249 53.54402 17.56994 -4.610325 53.54402 17.56994 -4.610325 54.19542 17.81095 -0.6103249 54.19542 17.81095 -4.610325 54.19542 17.81095 -0.6103249 75.11033 25.56737 -0.6103249 54.19542 17.81095 -4.610325 54.19542 17.81095 -4.610325 75.11033 25.56737 -0.6103249 75.11033 25.56737 -4.610325 75.11033 25.56737 -0.6103249 66.62124 48.41818 -0.6103249 75.11033 25.56737 -4.610325 75.11033 25.56737 -4.610325 66.62124 48.41818 -0.6103249 66.62124 48.41818 -4.610325 66.62124 48.41818 -0.6103249 44.82556 40.42021 -0.6103249 66.62124 48.41818 -4.610325 66.62124 48.41818 -4.610325 44.82556 40.42021 -0.6103249 44.82556 40.42021 -4.610325 44.82556 40.42021 -0.6103249 45.28443 39.50618 -0.6103249 44.82556 40.42021 -4.610325 44.82556 40.42021 -4.610325 45.28443 39.50618 -0.6103249 45.28443 39.50618 -4.610325 45.28443 39.50618 -0.6103249 33.58357 35.16445 -0.6103249 45.28443 39.50618 -4.610325 45.28443 39.50618 -4.610325 33.58357 35.16445 -0.6103249 33.58357 35.16445 -4.610325 33.58357 35.16445 -0.6103249 33.35414 35.62146 -0.6103249 33.58357 35.16445 -4.610325 33.58357 35.16445 -4.610325 33.35414 35.62146 -0.6103249 33.35414 35.62146 -4.610325 33.35414 35.62146 -0.6103249 5.593224 25.33849 -0.6103249 33.35414 35.62146 -4.610325 33.35414 35.62146 -4.610325 5.593224 25.33849 -0.6103249 5.593224 25.33849 -4.610325 5.593224 25.33849 -0.6103249 3.528356 31.05121 -0.6103249 5.593224 25.33849 -4.610325 5.593224 25.33849 -4.610325 3.528356 31.05121 -0.6103249 3.528356 31.05121 -4.610325 3.528356 31.05121 -0.6103249 -0.1425114 29.68016 -0.6103249 3.528356 31.05121 -4.610325 3.528356 31.05121 -4.610325 -0.1425114 29.68016 -0.6103249 -0.1425114 29.68016 -4.610325 -0.1425114 29.68016 -0.6103249 -2.89566 36.76394 -0.6103249 -0.1425114 29.68016 -4.610325 -0.1425114 29.68016 -4.610325 -2.89566 36.76394 -0.6103249 -2.89566 36.76394 -4.610325 -2.89566 36.76394 -0.6103249 0.7752049 37.90648 -0.6103249 -2.89566 36.76394 -4.610325 -2.89566 36.76394 -4.610325 0.7752049 37.90648 -0.6103249 0.7752049 37.90648 -4.610325 0.7752049 37.90648 -0.6103249 0.08691776 39.50604 -0.6103249 0.7752049 37.90648 -4.610325 0.7752049 37.90648 -4.610325 0.08691776 39.50604 -0.6103249 0.08691776 39.50604 -4.610325 0.08691776 39.50604 -0.6103249 27.84779 49.78899 -0.6103249 0.08691776 39.50604 -4.610325 0.08691776 39.50604 -4.610325 27.84779 49.78899 -0.6103249 27.84779 49.78899 -4.610325 27.84779 49.78899 -0.6103249 27.38893 50.70303 -0.6103249 27.84779 49.78899 -4.610325 27.84779 49.78899 -4.610325 27.38893 50.70303 -0.6103249 27.38893 50.70303 -4.610325 27.38893 50.70303 -0.6103249 39.08976 55.04475 -0.6103249 27.38893 50.70303 -4.610325 27.38893 50.70303 -4.610325 39.08976 55.04475 -0.6103249 39.08976 55.04475 -4.610325 39.08976 55.04475 -0.6103249 39.08977 54.81624 -0.6103249 39.08976 55.04475 -4.610325 39.08976 55.04475 -4.610325 39.08977 54.81624 -0.6103249 39.08977 54.81624 -4.610325 39.08977 54.81624 -0.6103249 71.20965 66.69893 -0.6103249 39.08977 54.81624 -4.610325 39.08977 54.81624 -4.610325 71.20965 66.69893 -0.6103249 71.20965 66.69893 -4.610325 71.20965 66.69893 -0.6103249 71.89795 65.32789 -0.6103249 71.20965 66.69893 -4.610325 71.20965 66.69893 -4.610325 71.89795 65.32789 -0.6103249 71.89795 65.32789 -4.610325 71.89795 65.32789 -0.6103249 78.55135 66.92751 -0.6103249 71.89795 65.32789 -4.610325 71.89795 65.32789 -4.610325 78.55135 66.92751 -0.6103249 78.55135 66.92751 -4.610325 78.55135 66.92751 -0.6103249 85.43419 66.69908 -0.6103249 78.55135 66.92751 -4.610325 78.55135 66.92751 -4.610325 85.43419 66.69908 -0.6103249 85.43419 66.69908 -4.610325 85.43419 66.69908 -0.6103249 91.85821 64.64257 -0.6103249 85.43419 66.69908 -4.610325 85.43419 66.69908 -4.610325 91.85821 64.64257 -0.6103249 91.85821 64.64257 -4.610325 91.85821 64.64257 -0.6103249 97.82339 60.9865 -0.6103249 91.85821 64.64257 -4.610325 91.85821 64.64257 -4.610325 97.82339 60.9865 -0.6103249 97.82339 60.9865 -4.610325 97.82339 60.9865 -0.6103249 102.412 55.95937 -0.6103249 97.82339 60.9865 -4.610325 97.82339 60.9865 -4.610325 102.412 55.95937 -0.6103249 102.412 55.95937 -4.610325 102.412 55.95937 -0.6103249 105.6241 50.01818 -0.6103249 102.412 55.95937 -4.610325 102.412 55.95937 -4.610325 105.6241 50.01818 -0.6103249 105.6241 50.01818 -4.610325 105.6241 50.01818 -0.6103249 107.2302 43.39145 -0.6103249 105.6241 50.01818 -4.610325 105.6241 50.01818 -4.610325 107.2302 43.39145 -0.6103249 107.2302 43.39145 -4.610325 107.2302 43.39145 -0.6103249 107.0009 36.53618 -0.6103249 107.2302 43.39145 -4.610325 107.2302 43.39145 -4.610325 107.0009 36.53618 -0.6103249 107.0009 36.53618 -4.610325 107.0009 36.53618 -0.6103249 104.9361 29.90939 -0.6103249 107.0009 36.53618 -4.610325 107.0009 36.53618 -4.610325 104.9361 29.90939 -0.6103249 104.9361 29.90939 -4.610325 104.9361 29.90939 -0.6103249 101.2653 24.19662 -0.6103249 104.9361 29.90939 -4.610325 104.9361 29.90939 -4.610325 101.2653 24.19662 -0.6103249 101.2653 24.19662 -4.610325 101.2653 24.19662 -0.6103249 96.21791 19.39787 -0.6103249 101.2653 24.19662 -4.610325 101.2653 24.19662 -4.610325 96.21791 19.39787 -0.6103249 96.21791 19.39787 -4.610325 96.21791 19.39787 -0.6103249 90.25289 16.19873 -0.6103249 96.21791 19.39787 -4.610325 96.21791 19.39787 -4.610325 90.25289 16.19873 -0.6103249 90.25289 16.19873 -4.610325 90.71166 14.82785 -0.6103249 90.71159 14.82782 -0.6103249 90.71166 14.82785 -4.610325 90.71166 14.82785 -4.610325 90.71159 14.82782 -0.6103249 90.71159 14.82782 -4.610325 90.25289 16.19873 -0.6103249 90.71166 14.82785 -0.6103249 90.25289 16.19873 -4.610325 90.25289 16.19873 -4.610325 90.71166 14.82785 -0.6103249 90.71166 14.82785 -4.610325 -100.4041 -46.87702 8.36338 -102.6984 -42.76332 8.36338 -79.75509 -29.50845 8.36338 -74.01941 -39.3356 8.36338 -84.80275 -45.50598 8.36338 -88.24415 -39.79252 8.36338 -88.24415 -39.79252 8.36338 -100.4041 -46.87702 8.36338 -79.75509 -29.50845 8.36338 -79.75509 -29.50845 8.36338 -74.01941 -39.3356 8.36338 -88.24415 -39.79252 8.36338 -79.75509 -29.50845 11.36338 -102.6984 -42.76332 11.36338 -100.4041 -46.87702 11.36338 -88.24415 -39.79252 11.36338 -84.80275 -45.50598 11.36338 -74.01941 -39.3356 11.36338 -79.75509 -29.50845 11.36338 -100.4041 -46.87702 11.36338 -88.24415 -39.79252 11.36338 -88.24415 -39.79252 11.36338 -74.01941 -39.3356 11.36338 -79.75509 -29.50845 11.36338 -74.01941 -39.3356 11.36338 -84.80275 -45.50598 11.36338 -74.01941 -39.3356 8.36338 -74.01941 -39.3356 8.36338 -84.80275 -45.50598 11.36338 -84.80275 -45.50598 8.36338 -84.80275 -45.50598 11.36338 -88.24415 -39.79252 11.36338 -84.80275 -45.50598 8.36338 -84.80275 -45.50598 8.36338 -88.24415 -39.79252 11.36338 -88.24415 -39.79252 8.36338 -88.24415 -39.79252 11.36338 -100.4041 -46.87702 11.36338 -88.24415 -39.79252 8.36338 -88.24415 -39.79252 8.36338 -100.4041 -46.87702 11.36338 -100.4041 -46.87702 8.36338 -100.4041 -46.87702 11.36338 -102.6984 -42.76332 11.36338 -100.4041 -46.87702 8.36338 -100.4041 -46.87702 8.36338 -102.6984 -42.76332 11.36338 -102.6984 -42.76332 8.36338 -79.75509 -29.50845 11.36338 -74.01941 -39.3356 11.36338 -79.75509 -29.50845 8.36338 -79.75509 -29.50845 8.36338 -74.01941 -39.3356 11.36338 -74.01941 -39.3356 8.36338 -102.6984 -42.76332 11.36338 -79.75509 -29.50845 11.36338 -102.6984 -42.76332 8.36338 -102.6984 -42.76332 8.36338 -79.75509 -29.50845 11.36338 -79.75509 -29.50845 8.36338</float_array>
          <technique_common>
            <accessor count="708" source="#verts-array-array" stride="3">
              <param type="float" name="X" />
              <param type="float" name="Y" />
              <param type="float" name="Z" />
            </accessor>
          </technique_common>
        </source>
        <source id="normals-array">
          <float_array count="2124" id="normals-array-array">0 0 -1 0 0 -1 0 0 -1 0 0 -1 0 0 -1 0 0 -1 0 0 -1 0 0 -1 0 0 -1 0 0 -1 0 0 -1 0 0 -1 0 0 -1 0 0 -1 0 0 -1 0 0 -1 0 0 -1 0 0 -1 0 0 -1 0 0 -1 0 0 -1 0 0 -1 0 0 -1 0 0 -1 0 0 -1 0 0 -1 0 0 -1 0 0 -1 0 0 -1 0 0 -1 0 0 -1 0 0 -1 0 0 -1 0 0 -1 0 0 -1 0 0 -1 0 0 -1 0 0 -1 0 0 -1 0 0 -1 0 0 -1 0 0 -1 0 0 -1 0 0 -1 0 0 -1 0 0 -1 0 0 -1 0 0 -1 0 0 -1 0 0 -1 0 0 -1 0 0 -1 0 0 -1 0 0 -1 0 0 -1 0 0 -1 0 0 -1 0 0 -1 0 0 -1 0 0 -1 0 0 -1 0 0 -1 0 0 -1 0 0 -1 0 0 -1 0 0 -1 0 0 -1 0 0 -1 0 0 -1 0 0 -1 0 0 -1 0 0 -1 0 0 -1 0 0 -1 0 0 -1 0 0 -1 0 0 -1 0 0 -1 0 0 -1 0 0 -1 0 0 -1 0 0 -1 0 0 -1 0 0 -1 0 0 -1 0 0 -1 0 0 -1 0 0 -1 0 0 -1 0 0 -1 0 0 -1 0 0 -1 0 0 -1 0 0 -1 0 0 -1 0 0 -1 0 0 -1 0 0 -1 0 0 -1 0 0 -1 0 0 -1 0 0 -1 0 0 -1 0 0 -1 0 0 -1 0 0 -1 0 0 -1 0 0 -1 0 0 -1 0 0 -1 0 0 -1 0 0 -1 0 0 -1 0 0 -1 0 0 -1 0 0 -1 0 0 -1 0 0 -1 0 0 -1 0 0 -1 0 0 -1 0 0 -1 0 0 -1 0 0 -1 0 0 -1 0 0 -1 0 0 -1 0 0 -1 0 0 -1 0 0 -1 0 0 -1 0 0 -1 0 0 -1 0 0 -1 0 0 -1 0 0 -1 0 0 -1 0 0 -1 0 0 -1 0 0 -1 0 0 -1 0 0 -1 0 0 -1 0 0 -1 0 0 -1 0 0 -1 0 0 -1 0 0 -1 0 0 -1 0 0 -1 0 0 -1 0 0 -1 0 0 -1 0 0 -1 0 0 -1 0 0 -1 0 0 -1 0 0 -1 0 0 -1 0 0 1 0 0 1 0 0 1 0 0 1 0 0 1 0 0 1 0 0 1 0 0 1 0 0 1 0 0 1 0 0 1 0 0 1 0 0 1 0 0 1 0 0 1 0 0 1 0 0 1 0 0 1 0 0 1 0 0 1 0 0 1 0 0 1 0 0 1 0 0 1 0 0 1 0 0 1 0 0 1 0 0 1 0 0 1 0 0 1 0 0 1 0 0 1 0 0 1 0 0 1 0 0 1 0 0 1 0 0 1 0 0 1 0 0 1 0 0 1 0 0 1 0 0 1 0 0 1 0 0 1 0 0 1 0 0 1 0 0 1 0 0 1 0 0 1 0 0 1 0 0 1 0 0 1 0 0 1 0 0 1 0 0 1 0 0 1 0 0 1 0 0 1 0 0 1 0 0 1 0 0 1 0 0 1 0 0 1 0 0 1 0 0 1 0 0 1 0 0 1 0 0 1 0 0 1 0 0 1 0 0 1 0 0 1 0 0 1 0 0 1 0 0 1 0 0 1 0 0 1 0 0 1 0 0 1 0 0 1 0 0 1 0 0 1 0 0 1 0 0 1 0 0 1 0 0 1 0 0 1 0 0 1 0 0 1 0 0 1 0 0 1 0 0 1 0 0 1 0 0 1 0 0 1 0 0 1 0 0 1 0 0 1 0 0 1 0 0 1 0 0 1 0 0 1 0 0 1 0 0 1 0 0 1 0 0 1 0 0 1 0 0 1 0 0 1 0 0 1 0 0 1 0 0 1 0 0 1 0 0 1 0 0 1 0 0 1 0 0 1 0 0 1 0 0 1 0 0 1 0 0 1 0 0 1 0 0 1 0 0 1 0 0 1 0 0 1 0 0 1 0 0 1 0 0 1 0 0 1 0 0 1 0 0 1 0 0 1 0 0 1 0 0 1 0 0 1 0 0 1 0 0 1 0 0 1 0 0 1 0 0 1 0 0 1 0 0 1 0 0 1 0 0 1 0 0 1 0 0 1 0 0 1 0 0 1 0 0 1 0 0 1 0 0 1 0 0 1 0 0 1 0 0 1 0 0 1 0 0 1 0 0 1 0 0 1 0.9482966 0.3173856 0 0.9482966 0.3173856 0 0.9482966 0.3173856 0 0.9482966 0.3173856 0 0.9482966 0.3173856 0 0.9482966 0.3173856 0 0.3480334 -0.9374821 0 0.3480334 -0.9374821 0 0.3480334 -0.9374821 0 0.3480334 -0.9374821 0 0.3480334 -0.9374821 0 0.3480334 -0.9374821 0 8.561031e-06 -1 0 8.561031e-06 -1 0 8.561031e-06 -1 0 8.561031e-06 -1 0 8.561031e-06 -1 0 8.561031e-06 -1 0 0.3470023 -0.9378643 0 0.3470023 -0.9378643 0 0.3470023 -0.9378643 0 0.3470023 -0.9378643 0 0.3470023 -0.9378643 0 0.3470023 -0.9378643 0 0.8937241 0.448617 0 0.8937241 0.448617 0 0.8937241 0.448617 0 0.8937241 0.448617 0 0.8937241 0.448617 0 0.8937241 0.448617 0 0.3479212 -0.9375238 0 0.3479212 -0.9375238 0 0.3479212 -0.9375238 0 0.3479212 -0.9375238 0 0.3479212 -0.9375238 0 0.3479212 -0.9375238 0 -0.9279733 -0.3726467 0 -0.9279733 -0.3726467 0 -0.9279733 -0.3726467 0 -0.9279733 -0.3726467 0 -0.9279733 -0.3726467 0 -0.9279733 -0.3726467 0 0.349928 -0.9367766 0 0.349928 -0.9367766 0 0.349928 -0.9367766 0 0.349928 -0.9367766 0 0.349928 -0.9367766 0 0.349928 -0.9367766 0 -0.9185859 -0.3952215 0 -0.9185859 -0.3952215 0 -0.9185859 -0.3952215 0 -0.9185859 -0.3952215 0 -0.9185859 -0.3952215 0 -0.9185859 -0.3952215 0 0.3701449 -0.9289741 0 0.3701449 -0.9289741 0 0.3701449 -0.9289741 0 0.3701449 -0.9289741 0 0.3701449 -0.9289741 0 0.3701449 -0.9289741 0 -0.9384402 -0.3454418 0 -0.9384402 -0.3454418 0 -0.9384402 -0.3454418 0 -0.9384402 -0.3454418 0 -0.9384402 -0.3454418 0 -0.9384402 -0.3454418 0 -0.3499258 0.9367774 0 -0.3499258 0.9367774 0 -0.3499258 0.9367774 0 -0.3499258 0.9367774 0 -0.3499258 0.9367774 0 -0.3499258 0.9367774 0 -0.9328743 -0.3602022 0 -0.9328743 -0.3602022 0 -0.9328743 -0.3602022 0 -0.9328743 -0.3602022 0 -0.9328743 -0.3602022 0 -0.9328743 -0.3602022 0 -0.3473847 0.9377227 0 -0.3473847 0.9377227 0 -0.3473847 0.9377227 0 -0.3473847 0.9377227 0 -0.3473847 0.9377227 0 -0.3473847 0.9377227 0 2.536821e-06 -1 0 2.536821e-06 -1 0 2.536821e-06 -1 0 2.536821e-06 -1 0 2.536821e-06 -1 0 2.536821e-06 -1 0 -0.346719 0.937969 0 -0.346719 0.937969 0 -0.346719 0.937969 0 -0.346719 0.937969 0 -0.346719 0.937969 0 -0.346719 0.937969 0 -0.3473881 0.9377214 0 -0.3473881 0.9377214 0 -0.3473881 0.9377214 0 -0.3473881 0.9377214 0 -0.3473881 0.9377214 0 -0.3473881 0.9377214 0 -0.8937033 -0.4486585 0 -0.8937033 -0.4486585 0 -0.8937033 -0.4486585 0 -0.8937033 -0.4486585 0 -0.8937033 -0.4486585 0 -0.8937033 -0.4486585 0 -0.3478974 0.9375326 0 -0.3478974 0.9375326 0 -0.3478974 0.9375326 0 -0.3478974 0.9375326 0 -0.3478974 0.9375326 0 -0.3478974 0.9375326 0 -0.8937252 -0.4486148 0 -0.8937252 -0.4486148 0 -0.8937252 -0.4486148 0 -0.8937252 -0.4486148 0 -0.8937252 -0.4486148 0 -0.8937252 -0.4486148 0 -0.3479212 0.9375238 0 -0.3479212 0.9375238 0 -0.3479212 0.9375238 0 -0.3479212 0.9375238 0 -0.3479212 0.9375238 0 -0.3479212 0.9375238 0 0.8937248 0.4486156 0 0.8937248 0.4486156 0 0.8937248 0.4486156 0 0.8937248 0.4486156 0 0.8937248 0.4486156 0 0.8937248 0.4486156 0 -0.3470018 0.9378645 0 -0.3470018 0.9378645 0 -0.3470018 0.9378645 0 -0.3470018 0.9378645 0 -0.3470018 0.9378645 0 -0.3470018 0.9378645 0 -0.3477147 0.9376004 0 -0.3477147 0.9376004 0 -0.3477147 0.9376004 0 -0.3477147 0.9376004 0 -0.3477147 0.9376004 0 -0.3477147 0.9376004 0 -0.9374033 -0.3482458 0 -0.9374033 -0.3482458 0 -0.9374033 -0.3482458 0 -0.9374033 -0.3482458 0 -0.9374033 -0.3482458 0 -0.9374033 -0.3482458 0 0.3444908 -0.9387897 0 0.3444908 -0.9387897 0 0.3444908 -0.9387897 0 0.3444908 -0.9387897 0 0.3444908 -0.9387897 0 0.3444908 -0.9387897 0 0.8937037 0.4486577 0 0.8937037 0.4486577 0 0.8937037 0.4486577 0 0.8937037 0.4486577 0 0.8937037 0.4486577 0 0.8937037 0.4486577 0 0.3478835 -0.9375378 0 0.3478835 -0.9375378 0 0.3478835 -0.9375378 0 0.3478835 -0.9375378 0 0.3478835 -0.9375378 0 0.3478835 -0.9375378 0 -0.8937043 -0.4486565 0 -0.8937043 -0.4486565 0 -0.8937043 -0.4486565 0 -0.8937043 -0.4486565 0 -0.8937043 -0.4486565 0 -0.8937043 -0.4486565 0 0.3473485 -0.9377361 0 0.3473485 -0.9377361 0 0.3473485 -0.9377361 0 0.3473485 -0.9377361 0 0.3473485 -0.9377361 0 0.3473485 -0.9377361 0 -0.9404518 -0.339927 0 -0.9404518 -0.339927 0 -0.9404518 -0.339927 0 -0.9404518 -0.339927 0 -0.9404518 -0.339927 0 -0.9404518 -0.339927 0 0.3498878 -0.9367916 0 0.3498878 -0.9367916 0 0.3498878 -0.9367916 0 0.3498878 -0.9367916 0 0.3498878 -0.9367916 0 0.3498878 -0.9367916 0 -0.9320781 -0.3622573 0 -0.9320781 -0.3622573 0 -0.9320781 -0.3622573 0 -0.9320781 -0.3622573 0 -0.9320781 -0.3622573 0 -0.9320781 -0.3622573 0 -0.2971844 0.9548201 0 -0.2971844 0.9548201 0 -0.2971844 0.9548201 0 -0.2971844 0.9548201 0 -0.2971844 0.9548201 0 -0.2971844 0.9548201 0 -0.9185701 -0.3952581 0 -0.9185701 -0.3952581 0 -0.9185701 -0.3952581 0 -0.9185701 -0.3952581 0 -0.9185701 -0.3952581 0 -0.9185701 -0.3952581 0 -0.3473484 0.9377361 0 -0.3473484 0.9377361 0 -0.3473484 0.9377361 0 -0.3473484 0.9377361 0 -0.3473484 0.9377361 0 -0.3473484 0.9377361 0 -0.893705 -0.4486551 0 -0.893705 -0.4486551 0 -0.893705 -0.4486551 0 -0.893705 -0.4486551 0 -0.893705 -0.4486551 0 -0.893705 -0.4486551 0 -0.3478833 0.9375378 0 -0.3478833 0.9375378 0 -0.3478833 0.9375378 0 -0.3478833 0.9375378 0 -0.3478833 0.9375378 0 -0.3478833 0.9375378 0 1 5.112759e-06 0 1 5.112759e-06 0 1 5.112759e-06 0 1 5.112759e-06 0 1 5.112759e-06 0 1 5.112759e-06 0 -0.3469662 0.9378776 0 -0.3469662 0.9378776 0 -0.3469662 0.9378776 0 -0.3469662 0.9378776 0 -0.3469662 0.9378776 0 -0.3469662 0.9378776 0 0.8937028 0.4486595 0 0.8937028 0.4486595 0 0.8937028 0.4486595 0 0.8937028 0.4486595 0 0.8937028 0.4486595 0 0.8937028 0.4486595 0 -0.2337614 0.972294 0 -0.2337614 0.972294 0 -0.2337614 0.972294 0 -0.2337614 0.972294 0 -0.2337614 0.972294 0 -0.2337614 0.972294 0 0.03317077 0.9994497 0 0.03317077 0.9994497 0 0.03317077 0.9994497 0 0.03317077 0.9994497 0 0.03317077 0.9994497 0 0.03317077 0.9994497 0 0.3048862 0.9523888 0 0.3048862 0.9523888 0 0.3048862 0.9523888 0 0.3048862 0.9523888 0 0.3048862 0.9523888 0 0.3048862 0.9523888 0 0.522561 0.8526019 0 0.522561 0.8526019 0 0.522561 0.8526019 0 0.522561 0.8526019 0 0.522561 0.8526019 0 0.522561 0.8526019 0 0.7385849 0.6741604 0 0.7385849 0.6741604 0 0.7385849 0.6741604 0 0.7385849 0.6741604 0 0.7385849 0.6741604 0 0.7385849 0.6741604 0 0.8796676 0.475589 0 0.8796676 0.475589 0 0.8796676 0.475589 0 0.8796676 0.475589 0 0.8796676 0.475589 0 0.8796676 0.475589 0 0.9718631 0.2355463 0 0.9718631 0.2355463 0 0.9718631 0.2355463 0 0.9718631 0.2355463 0 0.9718631 0.2355463 0 0.9718631 0.2355463 0 0.9994409 -0.03343481 0 0.9994409 -0.03343481 0 0.9994409 -0.03343481 0 0.9994409 -0.03343481 0 0.9994409 -0.03343481 0 0.9994409 -0.03343481 0 0.9547298 -0.2974742 0 0.9547298 -0.2974742 0 0.9547298 -0.2974742 0 0.9547298 -0.2974742 0 0.9547298 -0.2974742 0 0.9547298 -0.2974742 0 0.8412926 -0.5405801 0 0.8412926 -0.5405801 0 0.8412926 -0.5405801 0 0.8412926 -0.5405801 0 0.8412926 -0.5405801 0 0.8412926 -0.5405801 0 0.6890312 -0.7247317 0 0.6890312 -0.7247317 0 0.6890312 -0.7247317 0 0.6890312 -0.7247317 0 0.6890312 -0.7247317 0 0.6890312 -0.7247317 0 0.4726336 -0.881259 0 0.4726336 -0.881259 0 0.4726336 -0.881259 0 0.4726336 -0.881259 0 0.4726336 -0.881259 0 0.4726336 -0.881259 0 0.3469911 -0.9378684 0 0.3469911 -0.9378684 0 0.3469911 -0.9378684 0 0.3469911 -0.9378684 0 0.3469911 -0.9378684 0 0.3469911 -0.9378684 0 0.9483085 0.3173501 0 0.9483085 0.3173501 0 0.9483085 0.3173501 0 0.9483085 0.3173501 0 0.9483085 0.3173501 0 0.9483085 0.3173501 0 0 0 -1 0 0 -1 0 0 -1 0 0 -1 0 0 -1 0 0 -1 0 0 -1 0 0 -1 0 0 -1 0 0 -1 0 0 -1 0 0 -1 0 0 1 0 0 1 0 0 1 0 0 1 0 0 1 0 0 1 0 0 1 0 0 1 0 0 1 0 0 1 0 0 1 0 0 1 0.4966532 -0.8679491 0 0.4966532 -0.8679491 0 0.4966532 -0.8679491 0 0.4966532 -0.8679491 0 0.4966532 -0.8679491 0 0.4966532 -0.8679491 0 -0.85661 -0.5159644 0 -0.85661 -0.5159644 0 -0.85661 -0.5159644 0 -0.85661 -0.5159644 0 -0.85661 -0.5159644 0 -0.85661 -0.5159644 0 0.5034038 -0.8640513 0 0.5034038 -0.8640513 0 0.5034038 -0.8640513 0 0.5034038 -0.8640513 0 0.5034038 -0.8640513 0 0.5034038 -0.8640513 0 -0.8733563 -0.4870819 0 -0.8733563 -0.4870819 0 -0.8733563 -0.4870819 0 -0.8733563 -0.4870819 0 -0.8733563 -0.4870819 0 -0.8733563 -0.4870819 0 0.8636573 0.5040794 0 0.8636573 0.5040794 0 0.8636573 0.5040794 0 0.8636573 0.5040794 0 0.8636573 0.5040794 0 0.8636573 0.5040794 0 -0.5002423 0.8658855 0 -0.5002423 0.8658855 0 -0.5002423 0.8658855 0 -0.5002423 0.8658855 0 -0.5002423 0.8658855 0 -0.5002423 0.8658855 0</float_array>
          <technique_common>
            <accessor count="708" source="#normals-array-array" stride="3">
              <param type="float" name="X" />
              <param type="float" name="Y" />
              <param type="float" name="Z" />
            </accessor>
          </technique_common>
        </source>
        <vertices id="verts-array-vertices">
          <input semantic="POSITION" source="#verts-array" />
        </vertices>
        <triangles count="236" material="material0">
          <input offset="0" semantic="VERTEX" source="#verts-array-vertices" />
          <input offset="1" semantic="NORMAL" source="#normals-array" />
          <p>0 0 1 1 2 2 3 3 4 4 5 5 6 6 7 7 8 8 9 9 10 10 11 11 12 12 13 13 14 14 15 15 16 16 17 17 18 18 19 19 20 20 21 21 22 22 23 23 24 24 25 25 26 26 27 27 28 28 29 29 30 30 31 31 32 32 33 33 34 34 35 35 36 36 37 37 38 38 39 39 40 40 41 41 42 42 43 43 44 44 45 45 46 46 47 47 48 48 49 49 50 50 51 51 52 52 53 53 54 54 55 55 56 56 57 57 58 58 59 59 60 60 61 61 62 62 63 63 64 64 65 65 66 66 67 67 68 68 69 69 70 70 71 71 72 72 73 73 74 74 75 75 76 76 77 77 78 78 79 79 80 80 81 81 82 82 83 83 84 84 85 85 86 86 87 87 88 88 89 89 90 90 91 91 92 92 93 93 94 94 95 95 96 96 97 97 98 98 99 99 100 100 101 101 102 102 103 103 104 104 105 105 106 106 107 107 108 108 109 109 110 110 111 111 112 112 113 113 114 114 115 115 116 116 117 117 118 118 119 119 120 120 121 121 122 122 123 123 124 124 125 125 126 126 127 127 128 128 129 129 130 130 131 131 132 132 133 133 134 134 135 135 136 136 137 137 138 138 139 139 140 140 141 141 142 142 143 143 144 144 145 145 146 146 147 147 148 148 149 149 150 150 151 151 152 152 153 153 154 154 155 155 156 156 157 157 158 158 159 159 160 160 161 161 162 162 163 163 164 164 165 165 166 166 167 167 168 168 169 169 170 170 171 171 172 172 173 173 174 174 175 175 176 176 177 177 178 178 179 179 180 180 181 181 182 182 183 183 184 184 185 185 186 186 187 187 188 188 189 189 190 190 191 191 192 192 193 193 194 194 195 195 196 196 197 197 198 198 199 199 200 200 201 201 202 202 203 203 204 204 205 205 206 206 207 207 208 208 209 209 210 210 211 211 212 212 213 213 214 214 215 215 216 216 217 217 218 218 219 219 220 220 221 221 222 222 223 223 224 224 225 225 226 226 227 227 228 228 229 229 230 230 231 231 232 232 233 233 234 234 235 235 236 236 237 237 238 238 239 239 240 240 241 241 242 242 243 243 244 244 245 245 246 246 247 247 248 248 249 249 250 250 251 251 252 252 253 253 254 254 255 255 256 256 257 257 258 258 259 259 260 260 261 261 262 262 263 263 264 264 265 265 266 266 267 267 268 268 269 269 270 270 271 271 272 272 273 273 274 274 275 275 276 276 277 277 278 278 279 279 280 280 281 281 282 282 283 283 284 284 285 285 286 286 287 287 288 288 289 289 290 290 291 291 292 292 293 293 294 294 295 295 296 296 297 297 298 298 299 299 300 300 301 301 302 302 303 303 304 304 305 305 306 306 307 307 308 308 309 309 310 310 311 311 312 312 313 313 314 314 315 315 316 316 317 317 318 318 319 319 320 320 321 321 322 322 323 323 324 324 325 325 326 326 327 327 328 328 329 329 330 330 331 331 332 332 333 333 334 334 335 335 336 336 337 337 338 338 339 339 340 340 341 341 342 342 343 343 344 344 345 345 346 346 347 347 348 348 349 349 350 350 351 351 352 352 353 353 354 354 355 355 356 356 357 357 358 358 359 359 360 360 361 361 362 362 363 363 364 364 365 365 366 366 367 367 368 368 369 369 370 370 371 371 372 372 373 373 374 374 375 375 376 376 377 377 378 378 379 379 380 380 381 381 382 382 383 383 384 384 385 385 386 386 387 387 388 388 389 389 390 390 391 391 392 392 393 393 394 394 395 395 396 396 397 397 398 398 399 399 400 400 401 401 402 402 403 403 404 404 405 405 406 406 407 407 408 408 409 409 410 410 411 411 412 412 413 413 414 414 415 415 416 416 417 417 418 418 419 419 420 420 421 421 422 422 423 423 424 424 425 425 426 426 427 427 428 428 429 429 430 430 431 431 432 432 433 433 434 434 435 435 436 436 437 437 438 438 439 439 440 440 441 441 442 442 443 443 444 444 445 445 446 446 447 447 448 448 449 449 450 450 451 451 452 452 453 453 454 454 455 455 456 456 457 457 458 458 459 459 460 460 461 461 462 462 463 463 464 464 465 465 466 466 467 467 468 468 469 469 470 470 471 471 472 472 473 473 474 474 475 475 476 476 477 477 478 478 479 479 480 480 481 481 482 482 483 483 484 484 485 485 486 486 487 487 488 488 489 489 490 490 491 491 492 492 493 493 494 494 495 495 496 496 497 497 498 498 499 499 500 500 501 501 502 502 503 503 504 504 505 505 506 506 507 507 508 508 509 509 510 510 511 511 512 512 513 513 514 514 515 515 516 516 517 517 518 518 519 519 520 520 521 521 522 522 523 523 524 524 525 525 526 526 527 527 528 528 529 529 530 530 531 531 532 532 533 533 534 534 535 535 536 536 537 537 538 538 539 539 540 540 541 541 542 542 543 543 544 544 545 545 546 546 547 547 548 548 549 549 550 550 551 551 552 552 553 553 554 554 555 555 556 556 557 557 558 558 559 559 560 560 561 561 562 562 563 563 564 564 565 565 566 566 567 567 568 568 569 569 570 570 571 571 572 572 573 573 574 574 575 575 576 576 577 577 578 578 579 579 580 580 581 581 582 582 583 583 584 584 585 585 586 586 587 587 588 588 589 589 590 590 591 591 592 592 593 593 594 594 595 595 596 596 597 597 598 598 599 599 600 600 601 601 602 602 603 603 604 604 605 605 606 606 607 607 608 608 609 609 610 610 611 611 612 612 613 613 614 614 615 615 616 616 617 617 618 618 619 619 620 620 621 621 622 622 623 623 624 624 625 625 626 626 627 627 628 628 629 629 630 630 631 631 632 632 633 633 634 634 635 635 636 636 637 637 638 638 639 639 640 640 641 641 642 642 643 643 644 644 645 645 646 646 647 647 648 648 649 649 650 650 651 651 652 652 653 653 654 654 655 655 656 656 657 657 658 658 659 659 660 660 661 661 662 662 663 663 664 664 665 665 666 666 667 667 668 668 669 669 670 670 671 671 672 672 673 673 674 674 675 675 676 676 677 677 678 678 679 679 680 680 681 681 682 682 683 683 684 684 685 685 686 686 687 687 688 688 689 689 690 690 691 691 692 692 693 693 694 694 695 695 696 696 697 697 698 698 699 699 700 700 701 701 702 702 703 703 704 704 705 705 706 706 707 707</p>
        </triangles>
      </mesh>
    </geometry>
  </library_geometries>
  <library_materials>
    <material id="51271807266a4e91b707348a3f3e4899" name="defaultmaterial">
      <instance_effect url="#d8661f8a9cb9455f949420e00b909fab" />
    </material>
  </library_materials>
  <library_visual_scenes>
    <visual_scene id="scene">
      <node id="node0" name="node0">
        <instance_geometry url="#056ecc6f896844ae87ae0fda996b452e">
          <bind_material>
            <technique_common>
              <instance_material symbol="material0" target="#51271807266a4e91b707348a3f3e4899" />
            </technique_common>
          </bind_material>
        </instance_geometry>
      </node>
    </visual_scene>
  </library_visual_scenes>
  <scene>
    <instance_visual_scene url="#scene" />
  </scene>
</COLLADA>
